<?xml version="1.0" standalone="no"?>
<!DOCTYPE svg PUBLIC "-//W3C//DTD SVG 20010904//EN"
 "http://www.w3.org/TR/2001/REC-SVG-20010904/DTD/svg10.dtd">
<svg version="1.0" xmlns="http://www.w3.org/2000/svg"
 width="1214.000000pt" height="413.000000pt" viewBox="0 0 1214.000000 413.000000"
 preserveAspectRatio="xMidYMid meet">
<metadata>
Created by potrace 1.16, written by Peter Selinger 2001-2019
</metadata>
<g transform="translate(0.000000,413.000000) scale(0.100000,-0.100000)"
fill="#000000" stroke="none">
<path d="M0 2065 l0 -2065 6070 0 6070 0 0 2065 0 2065 -6070 0 -6070 0 0
-2065z m1113 533 c4 -757 6 -788 66 -964 81 -239 253 -408 459 -449 l32 -7 0
-140 0 -140 -42 7 c-88 14 -196 49 -283 92 -82 41 -198 125 -235 170 -8 10
-34 41 -56 68 -118 143 -194 347 -228 613 -13 102 -16 243 -16 783 l0 659 149
0 149 0 5 -692z m1727 48 c0 -379 -4 -686 -11 -746 -34 -335 -130 -570 -303
-743 -136 -136 -308 -222 -503 -252 l-43 -7 0 141 0 141 28 5 c101 22 239 101
306 176 77 84 139 205 176 339 43 154 50 291 50 958 l0 632 150 0 150 0 0
-644z m1703 628 c130 -29 273 -116 368 -222 58 -65 135 -194 165 -276 84 -233
38 -521 -114 -720 -61 -80 -165 -162 -253 -201 -46 -21 -74 -38 -73 -48 1 -8
28 -57 62 -108 139 -217 492 -779 492 -784 0 -3 -76 -5 -169 -5 l-169 0 -43
68 c-134 213 -499 787 -573 900 -47 73 -86 139 -86 147 0 11 33 14 178 17 166
3 180 5 232 29 182 85 293 360 235 582 -35 135 -143 276 -248 325 -83 39 -128
43 -502 40 l-360 -3 -3 -487 -2 -488 57 0 c32 0 64 -4 72 -9 19 -12 170 -254
164 -263 -2 -5 -69 -8 -149 -8 l-144 0 0 -425 0 -425 -150 0 -150 0 0 1190 0
1190 546 0 c465 0 556 -2 617 -16z m2117 -707 c0 -771 -8 -947 -50 -1125 -82
-345 -277 -525 -610 -563 -160 -18 -368 4 -497 54 -83 32 -163 79 -163 97 1
28 67 225 76 224 5 0 38 -14 74 -32 119 -57 213 -75 374 -70 116 4 151 9 200
28 110 42 189 136 231 275 56 182 58 216 62 1058 l5 777 149 0 149 0 0 -723z
m4225 708 c175 -46 327 -201 392 -402 34 -104 36 -273 4 -374 -48 -152 -155
-288 -274 -351 l-32 -16 75 -35 c218 -101 358 -323 360 -570 1 -238 -156 -462
-391 -556 -150 -60 -169 -61 -834 -61 l-605 0 0 130 0 129 608 3 608 3 76 38
c89 44 143 99 190 194 102 207 -12 493 -226 566 -17 6 -169 13 -341 16 l-310
6 0 120 0 120 280 5 280 5 59 30 c64 32 108 78 150 156 71 130 73 266 5 401
-41 82 -82 123 -157 160 l-67 33 -425 0 -425 0 -5 -790 -5 -790 -145 0 -145 0
-3 923 -2 922 623 0 c527 0 632 -2 682 -15z m-2645 -97 c52 -30 115 -66 140
-80 25 -14 92 -53 150 -86 58 -34 214 -123 347 -199 l243 -138 -3 -605 -2
-605 -155 -86 c-129 -72 -355 -198 -510 -286 -19 -11 -109 -62 -200 -112 -91
-51 -169 -97 -174 -101 -5 -5 -25 2 -45 14 -20 13 -94 56 -166 96 -158 89
-279 158 -495 282 -91 52 -204 116 -252 143 l-88 49 0 607 0 607 83 47 c45 26
107 62 137 80 64 37 501 292 640 373 52 31 113 66 135 78 l40 23 40 -23 c22
-12 83 -47 135 -78z"/>
<path d="M7989 2942 c-35 -21 -154 -92 -264 -157 -110 -65 -254 -151 -320
-190 l-120 -72 0 -453 0 -452 100 -58 c55 -31 177 -101 270 -155 94 -54 211
-121 260 -150 50 -28 103 -60 118 -70 23 -15 33 -16 47 -7 10 6 71 41 136 78
66 37 184 104 264 149 80 45 197 111 260 147 l115 65 0 454 0 453 -160 94
c-148 87 -245 144 -415 242 -36 21 -96 56 -134 79 -39 23 -75 41 -81 41 -6 0
-40 -17 -76 -38z m341 -432 c91 -51 182 -102 202 -114 l38 -21 0 -297 0 -297
-97 -57 c-54 -32 -153 -91 -221 -131 -68 -41 -139 -81 -157 -90 l-34 -16 -246
147 -245 147 0 297 1 297 57 33 c31 17 142 81 247 142 l189 109 51 -28 c27
-15 124 -70 215 -121z"/>
</g>
</svg>
